<?xml version="1.0" encoding="iso-8859-1"?>
<!-- Uploaded to: SVG Repo, www.svgrepo.com, Generator: SVG Repo Mixer Tools -->
<svg version="1.1" id="Layer_1" xmlns="http://www.w3.org/2000/svg" xmlns:xlink="http://www.w3.org/1999/xlink" 
	 viewBox="0 0 512.001 512.001" xml:space="preserve">
<path style="fill:#EEBF00;" d="M170.695,352.856c-64.171-89.375-94.079-248.74-94.079-248.74L256,7.599l179.384,96.517
	c0,0-25.907,159.366-86.554,248.741L170.695,352.856z"/>
<g style="opacity:0.3;">
	<path style="fill:#663C1D;" d="M361.355,64.187L118.614,250.356c9.768,25.633,21.3,51.547,34.649,74.893l282.12-221.23
		L361.355,64.187z"/>
</g>
<g>
	<path style="opacity:0.3;fill:#663C1D;enable-background:new    ;" d="M397.834,83.912
		c-10.162,46.224-30.252,123.208-62.028,185.344c-11.34,22.173-34.057,36.204-58.961,36.204l-134.366-0.001
		c8.539,16.966,17.938,33.08,28.217,47.397l178.134,0.001c60.647-89.375,86.554-248.741,86.554-248.741L397.834,83.912z"/>
	<path style="fill:#663C1D;" d="M429.514,504.4H84.639V385.402c0-17.975,14.572-32.547,32.547-32.547h279.779
		c17.975,0,32.547,14.572,32.547,32.547V504.4H429.514z"/>
</g>
<rect x="84.638" y="450.772" style="fill:#56361D;" width="344.876" height="53.633"/>
<path style="fill:#FFF5CC;" d="M338.136,421.682H179.925c-8.529,0-15.506-6.977-15.506-15.506v-3.156
	c0-8.529,6.977-15.506,15.506-15.506h158.212c8.529,0,15.506,6.977,15.506,15.506v3.156
	C353.642,414.705,346.664,421.682,338.136,421.682z"/>
<path d="M442.885,105.336c0.52-3.199-1.047-6.375-3.901-7.912l-74.044-39.841c-0.012-0.007-0.024-0.013-0.036-0.019L259.601,0.907
	c-2.248-1.209-4.954-1.209-7.201,0L73.016,97.424c-2.914,1.568-4.479,4.841-3.868,8.094c0.075,0.401,7.732,40.838,23.172,91.661
	c18.693,61.527,40.195,111.241,64.017,148.077h-39.151c-22.137,0-40.147,18.01-40.147,40.147v65.365v53.633
	c0,4.198,3.402,7.6,7.6,7.6h344.874c4.198,0,7.599-3.402,7.599-7.6v-53.633v-65.365c0-22.137-18.01-40.147-40.147-40.147h-34.225
	c22.488-36.863,42.453-86.642,59.434-148.266C436.18,146.169,442.819,105.738,442.885,105.336z M127.619,252.888l12.272-9.412
	c9.124,22.429,18.95,42.246,29.434,59.377l-13.917,10.914C144.979,294.503,135.722,273.687,127.619,252.888z M152.478,233.822
	L361.9,73.208l59.472,31.999L181.442,293.352C170.133,274.577,160.513,253.993,152.478,233.822z M85.176,108.141l170.825-91.912
	l91.221,49.082L146.819,219.007c-18.497-50.513-26.907-94.707-27.062-95.54c-0.767-4.126-4.732-6.85-8.859-6.084
	c-4.126,0.766-6.851,4.731-6.085,8.857c0.307,1.656,7.716,41.104,24.457,89.058c1.596,4.572,3.22,9.043,4.866,13.435l-12.121,9.296
	C100.859,180.064,88.71,125.214,85.176,108.141z M162.995,327.131l14.632-11.474c7.749,11.262,15.833,21.132,24.233,29.6h-27.224
	C170.617,339.482,166.739,333.416,162.995,327.131z M421.914,496.801H92.239v-38.434h12.447v19.217c0,4.198,3.402,7.6,7.6,7.6
	s7.6-3.402,7.6-7.6v-19.217h302.03V496.801z M421.914,385.403v57.765h-302.03v-47.952c0-4.198-3.402-7.599-7.6-7.599
	s-7.6,3.402-7.6,7.599v47.952H92.239v-57.765c0-13.756,11.192-24.948,24.948-24.948h231.609c0.009,0,0.018,0.002,0.027,0.002
	c0.011,0,0.022-0.002,0.033-0.002h48.111C410.723,360.455,421.914,371.647,421.914,385.403z M223.388,345.256
	c-0.444-0.916-1.075-1.759-1.899-2.463c-11.709-10.012-22.293-22.576-31.82-36.58l234.594-183.961
	c-8.85,44.189-34.241,153.995-79.502,223.004L223.388,345.256L223.388,345.256z"/>
<path d="M338.135,379.914H179.924c-12.74,0-23.106,10.365-23.106,23.107v3.155c0,12.74,10.365,23.106,23.106,23.106h158.212
	c12.741,0,23.107-10.365,23.107-23.106v-3.155C361.242,390.279,350.876,379.914,338.135,379.914z M346.043,406.176
	c0,4.36-3.547,7.907-7.908,7.907H179.924c-4.36,0-7.907-3.546-7.907-7.907v-3.155c0-4.36,3.546-7.908,7.907-7.908h158.212
	c4.36,0,7.908,3.547,7.908,7.908V406.176z"/>
</svg>